# xmcd CD database file
#
# Track frame offsets:
#	150
#	16568
#	31893
#	45302
#	65702
#	82669
#	102440
#	115896
#	137442
#	152901
#	172142
#	187303
#	205523
#	223237
#	239343
#	265858
#
# Disc length: 3769 seconds
#
# Revision: 7
# Processed by: cddbd v1.5.2PL0 Copyright (c) Steve Scherf et al.
# Submitted via: CDex 1.51
#
DISCID=d80eb710
DTITLE=Gotthard - Lipservice (Ltd Edition)
DYEAR=2005
DGENRE=Hard Rock
TTITLE0=All We Are
TTITLE1=Dream On
TTITLE2=Lift U Up
TTITLE3=Everything I Want
TTITLE4=Cupid Arrow
TTITLE5=I Wonder
TTITLE6=I'm Alive
TTITLE7=I've Seen An Angel Cry
TTITLE8=Stay For The Night
TTITLE9=Anytime Anywhere
TTITLE10=Said and Done
TTITLE11=The Other Side Of Me
TTITLE12=Nothing Left At Aall
TTITLE13=And Then Goodbye
TTITLE14=Can't Stop
TTITLE15=Data track
EXTD=YEAR: 2005
EXTT0=
EXTT1=
EXTT2=
EXTT3=
EXTT4=
EXTT5=
EXTT6=
EXTT7=
EXTT8=
EXTT9=
EXTT10=
EXTT11=
EXTT12=
EXTT13=
EXTT14=
EXTT15=
PLAYORDER=
